<?xml version="1.0" encoding="UTF-8" standalone="no"?>
<svg width="360px" height="100px" viewBox="0 0 360 100" version="1.1" xmlns="http://www.w3.org/2000/svg" xmlns:xlink="http://www.w3.org/1999/xlink" xmlns:sketch="http://www.bohemiancoding.com/sketch/ns">
    <!-- Generator: Sketch 3.2.1 (9971) - http://www.bohemiancoding.com/sketch -->
    <title>Word Mark</title>
    <desc>Created with Sketch.</desc>
    <defs></defs>
    <g id="Page-1" stroke="none" stroke-width="1" fill="none" fill-rule="evenodd" sketch:type="MSPage">
        <g id="Word-Mark" sketch:type="MSArtboardGroup" fill="#000000">
            <path d="M32.3236605,53.3903551 C33.6230676,51.9772073 34.9657082,50.5136756 36.3551851,48.9841651 C37.7446619,47.4558541 39.0873025,45.9419386 40.3867096,44.4484165 C41.6861167,42.9488964 42.9134679,41.5285509 44.0651605,40.171785 C45.2168531,38.8234165 46.2052191,37.6489923 47.0362632,36.6533109 L62.7516431,36.6533109 C59.6148119,40.2449616 56.5548404,43.6770633 53.5693265,46.9508157 C50.5838127,50.2245681 47.3136782,53.6002879 43.7661288,57.0755758 C45.5411044,58.6698656 47.3749257,60.5808541 49.2663916,62.8013436 C51.1578576,65.021833 52.9916788,67.315499 54.7678554,69.681142 C56.5404292,72.046785 58.1676904,74.4112284 59.648438,76.7768714 C61.1243819,79.1497121 62.3661443,81.3054223 63.3725243,83.2595969 L48.1735446,83.2595969 C47.2272112,81.7168906 46.1511772,80.021833 44.94184,78.1540307 C43.7288999,76.2862284 42.4487077,74.4184261 41.090455,72.5578215 C39.7298005,70.6900192 38.3006929,68.9025912 36.7959266,67.1859405 C35.2899595,65.4692898 33.7996044,64.0129559 32.3236605,62.8301344 L32.3236605,83.2595969 L19.1050157,83.2595969 L19.1050157,16.6209213 L32.3236605,14.5 L32.3236605,53.3903551 Z M81.7227462,23.1828215 C81.7227462,25.6060461 80.9397394,27.5098369 79.3737257,28.8941939 C77.806511,30.2857486 75.9582786,30.9779271 73.8290284,30.9779271 C71.6997782,30.9779271 69.8515457,30.2857486 68.2843311,28.8941939 C66.7183174,27.5098369 65.9353105,25.6060461 65.9353105,23.1828215 C65.9353105,20.7595969 66.7183174,18.8558061 68.2843311,17.4642514 C69.8515457,16.0798944 71.6997782,15.3805182 73.8290284,15.3805182 C75.9582786,15.3805182 77.806511,16.0798944 79.3737257,17.4642514 C80.9397394,18.8558061 81.7227462,20.7595969 81.7227462,23.1828215 Z M67.2635399,36.6533109 L80.4821848,36.6533109 L80.4821848,83.2595969 L67.2635399,83.2595969 L67.2635399,36.6533109 Z M85.5533808,59.9534549 C85.5533808,56.5849328 86.0986033,53.4119482 87.1950531,50.4273033 C88.289101,47.4486564 89.8707268,44.8454894 91.9387296,42.6309981 C94.0103352,40.4177063 96.5226823,38.6578695 99.4793738,37.3598848 C102.434864,36.0619002 105.807078,35.4057102 109.592412,35.4057102 C112.075937,35.4057102 114.354102,35.6288388 116.422105,36.0762956 C118.49371,36.5165547 120.504069,37.1511516 122.457983,37.9800864 L119.706651,48.5235125 C118.464888,48.0544626 117.104234,47.6357965 115.624687,47.2831094 C114.14514,46.9292226 112.491459,46.7492802 110.657637,46.7492802 C106.755813,46.7492802 103.838752,47.9608925 101.918464,50.3841171 C99.9981759,52.806142 99.0350294,56.0007198 99.0350294,59.9534549 C99.0350294,64.1497121 99.9369284,67.3946737 101.741927,69.7027351 C103.546926,72.0035988 106.694566,73.1564299 111.188449,73.1564299 C112.786888,73.1564299 114.501817,73.012476 116.335638,72.7173704 C118.165856,72.4210653 119.851963,71.9448177 121.392757,71.2958253 L123.255401,82.1055662 C121.713406,82.7545585 119.793118,83.3171785 117.487331,83.7934261 C115.180343,84.262476 112.639173,84.5 109.860219,84.5 C105.600518,84.5 101.932875,83.8654031 98.8584926,82.5962092 C95.7829089,81.3270154 93.2561506,79.5959693 91.2746149,77.4114683 C89.2930791,75.2269674 87.8447566,72.6441939 86.9284465,69.6595489 C86.0109354,66.6737044 85.5533808,63.4431382 85.5533808,59.9534549 Z M141.917727,53.3903551 C143.217135,51.9772073 144.559775,50.5136756 145.949252,48.9841651 C147.338729,47.4558541 148.681369,45.9419386 149.980777,44.4484165 C151.280184,42.9488964 152.507535,41.5285509 153.659227,40.171785 C154.81092,38.8234165 155.799286,37.6489923 156.63033,36.6533109 L172.34571,36.6533109 C169.21008,40.2449616 166.148907,43.6770633 163.163393,46.9508157 C160.17788,50.2245681 156.907745,53.6002879 153.360196,57.0755758 C155.135171,58.6698656 156.968993,60.5808541 158.860459,62.8013436 C160.751925,65.021833 162.585746,67.315499 164.361922,69.681142 C166.134496,72.046785 167.761757,74.4112284 169.242505,76.7768714 C170.718449,79.1497121 171.960211,81.3054223 172.966591,83.2595969 L157.767612,83.2595969 C156.821278,81.7168906 155.745244,80.021833 154.535907,78.1540307 C153.324168,76.2862284 152.042775,74.4184261 150.684522,72.5578215 C149.323867,70.6900192 147.89476,68.9025912 146.389994,67.1859405 C144.884026,65.4692898 143.393671,64.0129559 141.917727,62.8301344 L141.917727,83.2595969 L128.699083,83.2595969 L128.699083,16.6209213 L141.917727,14.5 L141.917727,53.3903551 Z M191.119329,73.7766315 C193.545209,73.7766315 195.260138,73.5463052 196.266518,73.0700576 C197.270496,72.59381 197.772485,71.6785029 197.772485,70.3229367 C197.772485,69.2552783 197.122782,68.3255758 195.823375,67.5326296 C194.519164,66.731286 192.541231,65.8303743 189.877566,64.8274952 C187.809564,64.0633397 185.932509,63.2631958 184.246402,62.434261 C182.561496,61.6113244 181.125183,60.6168426 179.944668,59.4700096 C178.76055,58.3159789 177.843039,56.9388196 177.193336,55.3445298 C176.540029,53.7514395 176.219381,51.8332534 176.219381,49.5899712 C176.219381,45.212572 177.843039,41.7588772 181.09516,39.2204894 C184.348481,36.6821017 188.813542,35.4057102 194.491542,35.4057102 C197.331744,35.4057102 200.04945,35.6588292 202.651867,36.1626679 C205.254284,36.6677063 207.323487,37.2087332 208.860679,37.800144 L206.557294,48.0832534 C205.0165,47.5494242 203.348407,47.0731766 201.543408,46.6629079 C199.73961,46.2514395 197.714841,46.0427063 195.4691,46.0427063 C191.328291,46.0427063 189.256685,47.196737 189.256685,49.4964012 C189.256685,50.0302303 189.346755,50.5064779 189.524493,50.9167466 C189.70103,51.328215 190.055304,51.7324856 190.588517,52.1139635 C191.119329,52.4966411 191.844691,52.9141075 192.762202,53.3615643 C193.678512,53.8090211 194.844616,54.2996641 196.266518,54.8334933 C199.161962,55.9071497 201.55902,56.9604127 203.449285,58.0052783 C205.345555,59.0441459 206.83591,60.1693858 207.929958,61.3809981 C209.022805,62.5854127 209.796204,63.9265835 210.235745,65.4045106 C210.680089,66.8764395 210.903462,68.5846929 210.903462,70.5316699 C210.903462,75.125 209.175323,78.6086852 205.713039,80.9671305 C202.25556,83.3171785 197.360566,84.5 191.032862,84.5 C186.893253,84.5 183.445381,84.1473129 180.698853,83.440739 C177.948721,82.7257678 176.039241,82.134357 174.974016,81.6665067 L177.193336,70.9431382 C179.439076,71.8296545 181.746064,72.521833 184.113099,73.0268714 C186.477731,73.5247121 188.813542,73.7766315 191.119329,73.7766315 Z M213.218857,60.306142 C213.218857,56.1746641 213.854149,52.5542226 215.124734,49.453215 C216.395318,46.3522073 218.067014,43.7706334 220.13862,41.7012956 C222.206622,39.6319578 224.585666,38.0664587 227.278153,37.0071977 C229.97064,35.9395393 232.736383,35.4057102 235.572982,35.4057102 C242.197316,35.4057102 247.430972,37.4318618 251.275151,41.478167 C255.119331,45.5232726 257.039619,51.4793666 257.039619,59.3332534 C257.039619,60.1046065 257.010797,60.9479367 256.953152,61.8572457 C256.891904,62.7797505 256.833059,63.5870921 256.775414,64.293666 L226.790575,64.293666 C227.087205,67.0131958 228.35779,69.168906 230.605932,70.7631958 C232.851673,72.3634837 235.869612,73.1564299 239.656146,73.1564299 C242.077223,73.1564299 244.459869,72.9333013 246.79568,72.4930422 C249.13149,72.0539827 251.037367,71.5057582 252.516914,70.8567658 L254.29309,81.5789347 C253.580938,81.9328215 252.635806,82.2867083 251.451688,82.6393954 C250.26757,82.9932821 248.953752,83.3027831 247.506631,83.5702975 C246.055906,83.8366123 244.503103,84.0597409 242.847019,84.2336852 C241.189735,84.4136276 239.536053,84.5 237.87997,84.5 C233.681516,84.5 230.029485,83.8797985 226.925079,82.6393954 C223.820673,81.3989923 221.247079,79.7051344 219.207898,77.5410269 C217.167517,75.3853167 215.659148,72.8325336 214.68159,69.8826775 C213.706434,66.9268234 213.218857,63.7382438 213.218857,60.306142 Z M244.268921,55.2581574 C244.207674,54.1341171 244.015525,53.0448656 243.691274,51.9772073 C243.365821,50.9167466 242.86143,49.9726488 242.182905,49.143714 C241.500776,48.3135797 240.644512,47.6357965 239.60931,47.1019674 C238.572907,46.5765355 237.287911,46.3090211 235.749518,46.3090211 C234.269972,46.3090211 232.999387,46.5621401 231.935362,47.0587812 C230.87374,47.5638196 229.986252,48.2272073 229.2741,49.056142 C228.566752,49.8862764 228.017926,50.8447697 227.63603,51.9340211 C227.249331,53.0304702 226.968313,54.1341171 226.790575,55.2581574 L244.268921,55.2581574 Z M312.862483,83.2595969 C309.834937,77.3538868 306.762956,70.4380998 303.647742,62.5278311 C300.532527,54.6091651 297.575836,45.9851248 294.789676,36.6533109 L308.805739,36.6533109 C309.397798,38.9541747 310.097941,41.4493762 310.898962,44.1389155 C311.701183,46.8284549 312.531026,49.5395873 313.393295,52.2879079 C314.256764,55.0350288 315.115429,57.7101727 315.977698,60.306142 C316.841167,62.909309 317.685421,65.274952 318.518867,67.3946737 C319.287463,65.274952 320.12211,62.909309 321.009598,60.306142 C321.901889,57.7101727 322.774966,55.0350288 323.637234,52.2879079 C324.4971,49.5395873 325.330546,46.8284549 326.131567,44.1389155 C326.933789,41.4493762 327.630329,38.9541747 328.22599,36.6533109 L341.894984,36.6533109 C339.105222,45.9851248 336.152133,54.6091651 333.040522,62.5278311 C329.92891,70.4380998 326.856929,77.3538868 323.832986,83.2595969 L312.862483,83.2595969 Z M290.260966,36.6533109 C289.283409,36.4421785 288.726177,36.2958253 287.803862,36.1626679 C286.797482,36.018714 285.793504,35.8963532 284.785923,35.8099808 C283.783146,35.7164107 282.92328,35.672025 282.215931,35.672025 C278.25286,35.672025 274.662077,36.0475048 271.437578,36.7828695 C268.21428,37.5182342 265.417312,38.3051823 263.052679,39.1341171 L263.052679,83.2595969 L276.271324,83.2595969 L276.271324,47.6357965 C276.863383,47.4630518 277.73646,47.2975048 278.888152,47.1535509 C280.043448,47.0011996 281.033015,46.9292226 281.859255,46.9292226 C283.693076,46.9292226 285.406804,47.0947697 287.006444,47.4198656 C288.014025,47.625 290.44591,48.1264395 292.816547,48.8929942 C293.444634,49.0957294 294.03309,48.5079175 293.822927,47.8829175 C292.607585,44.2588772 291.417463,40.5268714 290.260966,36.6533109 Z" id="Wordmark" sketch:type="MSShapeGroup"></path>
        </g>
    </g>
</svg>