<?xml version="1.0" encoding="UTF-8" standalone="no"?>
<svg width="2600px" height="943px" viewBox="0 0 2600 943" version="1.1" xmlns="http://www.w3.org/2000/svg" xmlns:xlink="http://www.w3.org/1999/xlink" xmlns:sketch="http://www.bohemiancoding.com/sketch/ns">
    <!-- Generator: Sketch 3.2.1 (9971) - http://www.bohemiancoding.com/sketch -->
    <title>Logo (flattened)</title>
    <desc>Created with Sketch.</desc>
    <defs>
        <path id="path-1" d="M159.096215,320.7 C246.836171,320.7 317.96346,248.931245 317.96346,160.4 C317.96346,71.8687546 246.836171,0.1 159.096215,0.1 C71.3562579,0.1 0.228969506,71.8687546 0.228969506,160.4 C0.228969506,248.931245 71.3562579,320.7 159.096215,320.7 Z"></path>
    </defs>
    <g id="Page-1" stroke="none" stroke-width="1" fill="none" fill-rule="evenodd" sketch:type="MSPage">
        <g id="Logo-(flattened)" sketch:type="MSArtboardGroup">
            <path d="M976.239253,486.228904 C982.160837,479.788988 988.279442,473.119465 994.611486,466.149267 C1000.94353,459.184535 1007.06214,452.285406 1012.98372,445.479212 C1018.9053,438.645685 1024.49852,432.172968 1029.74695,425.989992 C1034.99537,419.845284 1039.4995,414.493265 1043.28669,409.955803 L1114.90392,409.955803 C1100.60893,426.323468 1086.6642,441.964046 1073.05879,456.883003 C1059.45337,471.801961 1044.5509,487.185598 1028.38422,503.022981 C1036.47303,510.288388 1044.83002,518.997035 1053.4497,529.116123 C1062.06938,539.23521 1070.42636,549.687774 1078.52066,560.468347 C1086.59853,571.24892 1094.01419,582.024027 1100.76217,592.8046 C1107.48825,603.617974 1113.14714,613.441853 1117.73336,622.347306 L1048.46944,622.347306 C1044.15686,615.316973 1039.25322,607.592353 1033.7421,599.080511 C1028.21456,590.568669 1022.38054,582.056828 1016.19079,573.577787 C1009.99009,565.065945 1003.47744,556.92038 996.620009,549.097357 C989.757101,541.274335 982.96534,534.637613 976.239253,529.247327 L976.239253,622.347306 L916,622.347306 L916,318.665341 L976.239253,309 L976.239253,486.228904 Z M1201.35794,348.568858 C1201.35794,359.611838 1197.78967,368.287685 1190.65312,374.596398 C1183.5111,380.937911 1175.08844,384.092268 1165.38514,384.092268 C1155.68185,384.092268 1147.25919,380.937911 1140.11717,374.596398 C1132.98062,368.287685 1129.41234,359.611838 1129.41234,348.568858 C1129.41234,337.525877 1132.98062,328.850031 1140.11717,322.508517 C1147.25919,316.199805 1155.68185,313.012647 1165.38514,313.012647 C1175.08844,313.012647 1183.5111,316.199805 1190.65312,322.508517 C1197.78967,328.850031 1201.35794,337.525877 1201.35794,348.568858 Z M1135.46527,409.955803 L1195.70453,409.955803 L1195.70453,622.347306 L1135.46527,622.347306 L1135.46527,409.955803 Z M1218.81469,516.137887 C1218.81469,500.787051 1221.29935,486.327307 1226.29603,472.725853 C1231.28176,459.151734 1238.48946,447.28873 1247.91364,437.196977 C1257.35424,427.11069 1268.80337,419.090862 1282.27743,413.175761 C1295.74602,407.260659 1311.11368,404.270308 1328.36399,404.270308 C1339.68177,404.270308 1350.06369,405.287137 1359.48788,407.326261 C1368.92848,409.332585 1378.08997,412.224534 1386.99424,416.002108 L1374.45602,464.050007 C1368.79713,461.912479 1362.59644,460.004559 1355.85393,458.397313 C1349.11142,456.7846 1341.57536,455.964577 1333.21838,455.964577 C1315.43721,455.964577 1302.14374,461.486067 1293.39272,472.529048 C1284.64169,483.566562 1280.25249,498.124709 1280.25249,516.137887 C1280.25249,535.260831 1284.36257,550.048584 1292.58821,560.56675 C1300.81385,571.052115 1315.15809,576.305731 1335.63736,576.305731 C1342.92167,576.305731 1350.73685,575.649712 1359.09384,574.304874 C1367.4344,572.954569 1375.11823,570.78424 1382.13985,567.82669 L1390.62818,617.088223 C1383.60109,620.045774 1374.85006,622.609713 1364.34226,624.780042 C1353.82899,626.917569 1342.24852,628 1329.58443,628 C1310.17236,628 1293.45839,625.108051 1279.44799,619.324153 C1265.43211,613.540256 1253.91732,605.651631 1244.88717,595.696549 C1235.85703,585.741466 1229.25682,573.971398 1225.08106,560.369944 C1220.89983,546.763024 1218.81469,532.040873 1218.81469,516.137887 Z M1475.67507,486.228904 C1481.59666,479.788988 1487.71526,473.119465 1494.04731,466.149267 C1500.37935,459.184535 1506.49796,452.285406 1512.41954,445.479212 C1518.34112,438.645685 1523.93434,432.172968 1529.18277,425.989992 C1534.43119,419.845284 1538.93532,414.493265 1542.7225,409.955803 L1614.33974,409.955803 C1600.05022,426.323468 1586.10002,441.964046 1572.49461,456.883003 C1558.88919,471.801961 1543.98672,487.185598 1527.82003,503.022981 C1535.90885,510.288388 1544.26584,518.997035 1552.88552,529.116123 C1561.5052,539.23521 1569.86218,549.687774 1577.95647,560.468347 C1586.03435,571.24892 1593.45001,582.024027 1600.19799,592.8046 C1606.92407,603.617974 1612.58296,613.441853 1617.16918,622.347306 L1547.90526,622.347306 C1543.59268,615.316973 1538.68904,607.592353 1533.17792,599.080511 C1527.65585,590.568669 1521.81636,582.056828 1515.62661,573.577787 C1509.42591,565.065945 1502.91326,556.92038 1496.05583,549.097357 C1489.19292,541.274335 1482.40116,534.637613 1475.67507,529.247327 L1475.67507,622.347306 L1415.43582,622.347306 L1415.43582,318.665341 L1475.67507,309 L1475.67507,486.228904 Z M1699.8938,579.132078 C1710.94888,579.132078 1718.76406,578.082448 1723.35027,575.91212 C1727.92555,573.741791 1730.21318,569.570606 1730.21318,563.393097 C1730.21318,558.527625 1727.25239,554.290838 1721.33081,550.677269 C1715.38733,547.025432 1706.37361,542.919849 1694.23491,538.349585 C1684.81073,534.86722 1676.25672,531.220849 1668.57289,527.443275 C1660.89453,523.693035 1654.34905,519.16104 1648.96927,513.934758 C1643.57308,508.675675 1639.39185,502.399764 1636.43106,495.134357 C1633.45385,487.874417 1631.99261,479.132969 1631.99261,468.910012 C1631.99261,448.961578 1639.39185,433.222597 1654.21223,421.654802 C1669.03808,410.087006 1689.386,404.270308 1715.26146,404.270308 C1728.20466,404.270308 1740.58964,405.423807 1752.44922,407.719872 C1764.30881,410.021405 1773.73846,412.486941 1780.74367,415.182085 L1770.24681,462.043683 C1763.22519,459.610947 1755.62345,457.440619 1747.39782,455.570966 C1739.17765,453.695846 1729.95049,452.744619 1719.71633,452.744619 C1700.84607,452.744619 1691.40547,458.003702 1691.40547,468.4836 C1691.40547,470.916335 1691.81593,473.086664 1692.6259,474.956317 C1693.43041,476.831437 1695.04489,478.673756 1697.47481,480.412205 C1699.8938,482.156121 1703.19938,484.058576 1707.38061,486.0977 C1711.55636,488.136825 1716.87046,490.372755 1723.35027,492.805491 C1736.54523,497.698297 1747.46896,502.498166 1756.08317,507.259768 C1764.72474,511.994036 1771.5165,517.121915 1776.50223,522.643406 C1781.48249,528.132095 1785.00699,534.244002 1787.01004,540.979127 C1789.03498,547.686917 1790.05292,555.471672 1790.05292,564.344324 C1790.05292,585.276786 1782.17754,601.152437 1766.39942,611.900209 C1750.64319,622.609713 1728.33601,628 1699.49976,628 C1680.63497,628 1664.92252,626.392754 1652.4062,623.172796 C1639.87346,619.91457 1631.17169,617.219427 1626.3173,615.087366 L1636.43106,566.219444 C1646.66522,570.259426 1657.17849,573.413782 1667.96541,575.715314 C1678.74138,577.984045 1689.386,579.132078 1699.8938,579.132078 Z M1800.6045,517.745133 C1800.6045,498.917398 1803.49962,482.418529 1809.28986,468.286794 C1815.08009,454.155059 1822.69825,442.390458 1832.13885,432.96019 C1841.56304,423.529922 1852.40468,416.395719 1864.67473,411.568515 C1876.94477,406.703044 1889.54866,404.270308 1902.47545,404.270308 C1932.66348,404.270308 1956.514,413.50377 1974.03248,431.943361 C1991.55095,450.377485 2000.30198,477.520256 2000.30198,513.31154 C2000.30198,516.826707 2000.17063,520.669883 1999.90794,524.813734 C1999.62882,529.01772 1999.36065,532.696891 1999.09796,535.916849 L1862.45276,535.916849 C1863.80455,548.310135 1869.59478,558.134014 1879.83989,565.399421 C1890.07405,572.692161 1903.82723,576.305731 1921.08301,576.305731 C1932.1162,576.305731 1942.97426,575.288902 1953.61888,573.282578 C1964.2635,571.281721 1972.94886,568.783384 1979.69136,565.825833 L1987.78565,614.688288 C1984.54028,616.301001 1980.23317,617.913713 1974.83698,619.520959 C1969.44079,621.133672 1963.45353,622.544112 1956.85879,623.763213 C1950.24763,624.976847 1943.17128,625.993676 1935.62427,626.786366 C1928.07179,627.606389 1920.53573,628 1912.98872,628 C1893.85576,628 1877.21294,625.173653 1863.06572,619.520959 C1848.9185,613.868265 1837.19026,606.149112 1827.89742,596.286965 C1818.59911,586.463086 1811.72526,574.829689 1807.27039,561.386773 C1802.82647,547.916524 1800.6045,533.385711 1800.6045,517.745133 Z M1942.10408,494.740746 C1941.82497,489.618334 1940.94932,484.654459 1939.47166,479.788988 C1937.98853,474.956317 1935.68995,470.653928 1932.59781,466.876354 C1929.48925,463.093313 1925.58713,460.004559 1920.86957,457.571823 C1916.14653,455.177355 1910.29062,453.958253 1903.27995,453.958253 C1896.53744,453.958253 1890.74721,455.111753 1885.89829,457.375017 C1881.06033,459.676549 1877.01592,462.699702 1873.77054,466.477276 C1870.54705,470.260317 1868.04598,474.628308 1866.30562,479.592182 C1864.54338,484.588857 1863.26274,489.618334 1862.45276,494.740746 L1942.10408,494.740746 Z M2254.69475,622.347306 C2240.89778,595.434141 2226.89833,563.917912 2212.70185,527.869687 C2198.50537,491.783195 2185.03131,452.482211 2172.33438,409.955803 L2236.20758,409.955803 C2238.90568,420.441167 2242.09633,431.812157 2245.7467,444.068772 C2249.40254,456.325387 2253.18425,468.680405 2257.11373,481.204894 C2261.04868,493.723917 2264.96174,505.91493 2268.89122,517.745133 C2272.82617,529.608137 2276.67356,540.38871 2280.47169,550.048584 C2283.97429,540.38871 2287.7779,529.608137 2291.82231,517.745133 C2295.88861,505.91493 2299.86734,493.723917 2303.79682,481.204894 C2307.71536,468.680405 2311.51349,456.325387 2315.16386,444.068772 C2318.8197,431.812157 2321.99393,420.441167 2324.70844,409.955803 L2387,409.955803 C2374.28666,452.482211 2360.82901,491.783195 2346.64895,527.869687 C2332.46889,563.917912 2318.46944,595.434141 2304.68889,622.347306 L2254.69475,622.347306 Z M2151.6964,409.955803 C2147.24153,408.993642 2144.70215,408.32669 2140.49903,407.719872 C2135.91281,407.063854 2131.33754,406.506238 2126.74585,406.112627 C2122.17605,405.686215 2118.25752,405.483942 2115.03403,405.483942 C2096.97375,405.483942 2080.61004,407.195058 2065.91553,410.546219 C2051.2265,413.897381 2038.48032,417.483617 2027.70435,421.261191 L2027.70435,622.347306 L2087.94361,622.347306 L2087.94361,460.004559 C2090.6417,459.217336 2094.62044,458.462915 2099.86886,457.806896 C2105.13371,457.11261 2109.64331,456.7846 2113.4086,456.7846 C2121.76559,456.7846 2129.57529,457.539022 2136.86508,459.020531 C2141.45677,459.955357 2152.53922,462.240489 2163.34255,465.733788 C2166.20483,466.657681 2168.88651,463.978938 2167.92877,461.130724 C2162.39028,444.615454 2156.96672,427.608171 2151.6964,409.955803 Z" id="Wordmark" fill="#FFFFFF" sketch:type="MSShapeGroup"></path>
            <g id="Group" sketch:type="MSLayerGroup" transform="translate(189.000000, 196.000000)">
                <circle id="Oval-488" fill="#000000" sketch:type="MSShapeGroup" cx="288.5" cy="288.5" r="288.5"></circle>
                <g id="Silhouette-+-Eyes-+-Headband" transform="translate(38.000000, 38.000000)">
                    <path d="M166.716533,369.071952 C132.546546,386.633691 107.046328,414.55902 96.7086157,447.503307 C37.8620996,401.763827 0,330.303497 0,250 C0,111.928813 111.928813,0 250,0 C388.071187,0 500,111.928813 500,250 C500,329.589984 462.807736,400.493249 404.854993,446.278013 L404.854993,446.278013 C394.288327,413.908683 369.050062,386.486366 335.36982,369.139104 C380.186407,340.792542 409.985804,290.507667 409.985804,233.2 C409.985804,144.656303 338.848512,72.8774536 251.096215,72.8774536 C163.343917,72.8774536 92.2066246,144.656303 92.2066246,233.2 C92.2066246,290.462441 121.959007,340.713171 166.716533,369.071952 Z" id="Silhouette" fill="#FFFFFF" sketch:type="MSShapeGroup"></path>
                    <g id="Headband" transform="translate(40.000000, 72.800000)">
                        <path d="M40.0640972,142.20213 C43.9624939,137.847917 38.5367654,133.806162 36.3661126,129.738955 C30.8464764,119.408039 19.5557486,102.598519 12.6915156,102.427469 C5.82728256,102.256418 4.16445961,119.313198 6.17861547,126.793985 C8.54178088,135.576261 15.1435867,143.785004 25.7267209,144.815848 C30.4559469,145.279316 36.9256177,145.706 40.0640972,142.20213 L40.0640972,142.20213 Z" id="Knot-Top" stroke="#EA090C" stroke-width="4" stroke-linejoin="round" fill="#EB080C" sketch:type="MSShapeGroup" transform="translate(23.408146, 123.774527) rotate(-86.000000) translate(-23.408146, -123.774527) "></path>
                        <path d="M11.3942323,74.185982 C9.22775827,81.2721992 38.3652578,88.5470466 51.7774517,78.7837953 C59.0297002,73.5005096 58.2580833,69.2347546 54.8648899,62.0674415 C51.1670609,54.2541229 46.0183815,52.1965159 39.0061696,54.9423007 C28.3914414,59.0945671 13.5607063,67.0997648 11.3942323,74.185982 L11.3942323,74.185982 Z" id="Knot-Bottom" stroke="#EA090C" stroke-width="4" stroke-linejoin="round" fill="#EB080C" sketch:type="MSShapeGroup" transform="translate(34.320550, 68.649474) scale(1, -1) rotate(-48.000000) translate(-34.320550, -68.649474) "></path>
                        <path d="M70.5466409,100.419313 C74.7418016,88.2356817 91.1406261,73.0156251 66.8743383,74.9635007 C59.4340815,75.5607364 48.900467,82.5506725 45.66482,94.2002193 C41.8311816,108.024625 41.4523578,118.406531 49.0385305,117.412842 C58.6079294,120.620016 65.6119622,114.738318 70.5466409,100.419313 L70.5466409,100.419313 Z" id="Knot" stroke="#EA090C" stroke-width="4" fill="#EB080C" sketch:type="MSShapeGroup"></path>
                        <g id="Main-Headband" transform="translate(52.000000, 0.000000)">
                            <mask id="mask-2" sketch:name="Head 3" fill="white">
                                <use xlink:href="#path-1"></use>
                            </mask>
                            <use id="Head-3" sketch:type="MSShapeGroup" xlink:href="#path-1"></use>
                            <path d="M160.333022,56.2898892 C66.8104208,56.2898892 4.48529358,71.8822391 4.48529358,71.8822391 C4.48529358,71.8822391 -5.28008503,90.282536 -10.5856573,100.210796 C-16.7841865,111.810037 -22.1352491,134.711502 -22.1352491,134.711502 C-22.1352491,134.711502 83.8057379,116.259357 159.749806,114.721678 C235.693874,113.183999 340.676271,134.711502 340.676271,134.711502 C340.676271,134.711502 334.147587,109.581605 328.159446,97.016658 C323.643843,87.5415448 311.611566,68.5913184 311.611566,68.5913184 C311.611566,68.5913184 253.855623,56.2898892 160.333022,56.2898892 Z" id="Headband" fill="#EB080C" sketch:type="MSShapeGroup" mask="url(#mask-2)"></path>
                        </g>
                    </g>
                </g>
                <g id="Friendly-Eyes" transform="translate(211.000000, 251.000000)" sketch:type="MSShapeGroup">
                    <path d="M25.9816492,2.03459771 C44.9672805,-2.33180663 61.3074589,2.96985857 65.3385169,20.3634696 C69.3695749,37.7570806 75.4714236,75.6642895 56.4857923,80.0306938 C37.500161,84.3970982 5.76886892,75.7168397 1.73781093,58.3232287 C-2.29324707,40.9296177 6.9960179,6.40100205 25.9816492,2.03459771 L25.9816492,2.03459771 Z" id="Oval-9" fill="#FDFDFD"></path>
                    <path d="M130.804691,2.03459771 C111.819059,-2.33180663 95.4788809,2.96985857 91.447823,20.3634696 C87.416765,37.7570806 81.3149162,75.6642895 100.300547,80.0306938 C119.286179,84.3970982 151.017471,75.7168397 155.048529,58.3232287 C159.079587,40.9296177 149.790322,6.40100205 130.804691,2.03459771 L130.804691,2.03459771 Z" id="Oval-10" fill="#FDFDFD"></path>
                    <path d="M100.508551,50.4438224 C100.965785,59.0578302 108.476684,66.1492449 116.695737,65.723031 C125.221471,65.2771888 131.795598,57.8633096 131.474977,49.0418028 C131.145992,39.923068 124.346036,32.6634109 116.216199,32.741924 C107.512032,32.8232412 100.023438,41.2633986 100.508551,50.4438224 Z M41.2122591,32.741924 C32.5073297,32.8232412 25.0208674,41.2633986 25.5088119,50.4438224 C25.9660855,59.0578302 33.4748539,66.1492449 41.6946271,65.723031 C50.2211082,65.2771888 56.7930232,57.8633096 56.4751622,49.0418028 C56.1489365,39.923068 49.3455964,32.6634109 41.2122591,32.741924 Z" id="Pupils-2" fill="#000000"></path>
                </g>
            </g>
        </g>
    </g>
</svg>