<?xml version="1.0" encoding="UTF-8" standalone="no"?>
<svg width="716px" height="716px" viewBox="0 0 716 716" version="1.1" xmlns="http://www.w3.org/2000/svg" xmlns:xlink="http://www.w3.org/1999/xlink" xmlns:sketch="http://www.bohemiancoding.com/sketch/ns">
    <!-- Generator: Sketch 3.2.1 (9971) - http://www.bohemiancoding.com/sketch -->
    <title>Secondary Mark</title>
    <desc>Created with Sketch.</desc>
    <defs>
        <path id="path-1" d="M159.096215,320.7 C246.836171,320.7 317.96346,248.931245 317.96346,160.4 C317.96346,71.8687546 246.836171,0.1 159.096215,0.1 C71.3562579,0.1 0.228969506,71.8687546 0.228969506,160.4 C0.228969506,248.931245 71.3562579,320.7 159.096215,320.7 Z"></path>
    </defs>
    <g id="Page-1" stroke="none" stroke-width="1" fill="none" fill-rule="evenodd" sketch:type="MSPage">
        <g id="Secondary-Mark" sketch:type="MSArtboardGroup">
            <circle id="Oval-488" fill="#000000" sketch:type="MSShapeGroup" cx="358.5" cy="358.5" r="288.5"></circle>
            <g id="Silhouette-+-Eyes-+-Headband" sketch:type="MSLayerGroup" transform="translate(107.500000, 107.500000)">
                <path d="M166.716533,369.071952 C132.546546,386.633691 107.046328,414.55902 96.7086157,447.503307 C37.8620996,401.763827 0,330.303497 0,250 C0,111.928813 111.928813,0 250,0 C388.071187,0 500,111.928813 500,250 C500,329.589984 462.807736,400.493249 404.854993,446.278013 L404.854993,446.278013 C394.288327,413.908683 369.050062,386.486366 335.36982,369.139104 C380.186407,340.792542 409.985804,290.507667 409.985804,233.2 C409.985804,144.656303 338.848512,72.8774536 251.096215,72.8774536 C163.343917,72.8774536 92.2066246,144.656303 92.2066246,233.2 C92.2066246,290.462441 121.959007,340.713171 166.716533,369.071952 Z" id="Silhouette" fill="#FFFFFF" sketch:type="MSShapeGroup"></path>
                <g id="Headband" transform="translate(40.000000, 72.800000)">
                    <path d="M40.0640972,142.20213 C43.9624939,137.847917 38.5367654,133.806162 36.3661126,129.738955 C30.8464764,119.408039 19.5557486,102.598519 12.6915156,102.427469 C5.82728256,102.256418 4.16445961,119.313198 6.17861547,126.793985 C8.54178088,135.576261 15.1435867,143.785004 25.7267209,144.815848 C30.4559469,145.279316 36.9256177,145.706 40.0640972,142.20213 L40.0640972,142.20213 Z" id="Knot-Top" stroke="#EA090C" stroke-width="4" stroke-linejoin="round" fill="#EB080C" sketch:type="MSShapeGroup" transform="translate(23.408146, 123.774527) rotate(-86.000000) translate(-23.408146, -123.774527) "></path>
                    <path d="M11.3942323,74.185982 C9.22775827,81.2721992 38.3652578,88.5470466 51.7774517,78.7837953 C59.0297002,73.5005096 58.2580833,69.2347546 54.8648899,62.0674415 C51.1670609,54.2541229 46.0183815,52.1965159 39.0061696,54.9423007 C28.3914414,59.0945671 13.5607063,67.0997648 11.3942323,74.185982 L11.3942323,74.185982 Z" id="Knot-Bottom" stroke="#EA090C" stroke-width="4" stroke-linejoin="round" fill="#EB080C" sketch:type="MSShapeGroup" transform="translate(34.320550, 68.649474) scale(1, -1) rotate(-48.000000) translate(-34.320550, -68.649474) "></path>
                    <path d="M70.5466409,100.419313 C74.7418016,88.2356817 91.1406261,73.0156251 66.8743383,74.9635007 C59.4340815,75.5607364 48.900467,82.5506725 45.66482,94.2002193 C41.8311816,108.024625 41.4523578,118.406531 49.0385305,117.412842 C58.6079294,120.620016 65.6119622,114.738318 70.5466409,100.419313 L70.5466409,100.419313 Z" id="Knot" stroke="#EA090C" stroke-width="4" fill="#EB080C" sketch:type="MSShapeGroup"></path>
                    <g id="Main-Headband" transform="translate(52.000000, 0.000000)">
                        <mask id="mask-2" sketch:name="Head 3" fill="white">
                            <use xlink:href="#path-1"></use>
                        </mask>
                        <use id="Head-3" sketch:type="MSShapeGroup" xlink:href="#path-1"></use>
                        <path d="M160.333022,56.2898892 C66.8104208,56.2898892 4.48529358,71.8822391 4.48529358,71.8822391 C4.48529358,71.8822391 -5.28008503,90.282536 -10.5856573,100.210796 C-16.7841865,111.810037 -22.1352491,134.711502 -22.1352491,134.711502 C-22.1352491,134.711502 83.8057379,116.259357 159.749806,114.721678 C235.693874,113.183999 340.676271,134.711502 340.676271,134.711502 C340.676271,134.711502 334.147587,109.581605 328.159446,97.016658 C323.643843,87.5415448 311.611566,68.5913184 311.611566,68.5913184 C311.611566,68.5913184 253.855623,56.2898892 160.333022,56.2898892 Z" id="Headband" fill="#EB080C" sketch:type="MSShapeGroup" mask="url(#mask-2)"></path>
                    </g>
                </g>
            </g>
            <g id="Friendly-Eyes" sketch:type="MSLayerGroup" transform="translate(280.500000, 320.500000)">
                <path d="M25.9816492,2.03459771 C44.9672805,-2.33180663 61.3074589,2.96985857 65.3385169,20.3634696 C69.3695749,37.7570806 75.4714236,75.6642895 56.4857923,80.0306938 C37.500161,84.3970982 5.76886892,75.7168397 1.73781093,58.3232287 C-2.29324707,40.9296177 6.9960179,6.40100205 25.9816492,2.03459771 L25.9816492,2.03459771 Z" id="Oval-9" fill="#FDFDFD" sketch:type="MSShapeGroup"></path>
                <path d="M130.804691,2.03459771 C111.819059,-2.33180663 95.4788809,2.96985857 91.447823,20.3634696 C87.416765,37.7570806 81.3149162,75.6642895 100.300547,80.0306938 C119.286179,84.3970982 151.017471,75.7168397 155.048529,58.3232287 C159.079587,40.9296177 149.790322,6.40100205 130.804691,2.03459771 L130.804691,2.03459771 Z" id="Oval-10" fill="#FDFDFD" sketch:type="MSShapeGroup"></path>
                <path d="M100.508551,50.4438224 C100.965785,59.0578302 108.476684,66.1492449 116.695737,65.723031 C125.221471,65.2771888 131.795598,57.8633096 131.474977,49.0418028 C131.145992,39.923068 124.346036,32.6634109 116.216199,32.741924 C107.512032,32.8232412 100.023438,41.2633986 100.508551,50.4438224 Z M41.2122591,32.741924 C32.5073297,32.8232412 25.0208674,41.2633986 25.5088119,50.4438224 C25.9660855,59.0578302 33.4748539,66.1492449 41.6946271,65.723031 C50.2211082,65.2771888 56.7930232,57.8633096 56.4751622,49.0418028 C56.1489365,39.923068 49.3455964,32.6634109 41.2122591,32.741924 Z" id="Pupils-2" fill="#000000" sketch:type="MSShapeGroup"></path>
            </g>
        </g>
    </g>
</svg>